<svg width="201" height="40" viewBox="0 0 201 40" fill="none" xmlns="http://www.w3.org/2000/svg">
<g clip-path="url(#clip0_0_10)">
<path d="M9.33879 14.7234L4.07221 19.99L9.33879 25.2566L14.6054 19.99L9.33879 14.7234Z" fill="#D7B399"/>
<path d="M19.9944 4.08548L14.7278 9.35205L19.9944 14.6186L25.261 9.35205L19.9944 4.08548Z" fill="#D7B399"/>
<path d="M19.9914 25.3938L14.7248 30.6604L19.9913 35.927L25.2579 30.6604L19.9914 25.3938Z" fill="#D7B399"/>
<path d="M30.647 14.7266L25.3804 19.9932L30.647 25.2597L35.9136 19.9932L30.647 14.7266Z" fill="#D7B399"/>
<path d="M28.6102 12.6867L23.3436 17.9532L25.3828 19.9924L30.6494 14.7258L28.6102 12.6867Z" fill="#D7B399"/>
<path d="M17.9547 23.3533L12.6881 28.6199L14.7273 30.659L19.9938 25.3924L17.9547 23.3533Z" fill="#D7B399"/>
<path d="M25.2587 9.35305L19.9921 14.6196L22.0313 16.6588L27.2978 11.3922L25.2587 9.35305Z" fill="#D7B399"/>
<path d="M14.6177 20.0053L9.35116 25.2719L11.3903 27.311L16.6569 22.0444L14.6177 20.0053Z" fill="#D7B399"/>
<path d="M11.3788 12.6864L9.33961 14.7256L14.6062 19.9922L16.6453 17.953L11.3788 12.6864Z" fill="#D7B399"/>
<path d="M14.727 9.34953L12.6879 11.3887L17.9544 16.6552L19.9936 14.6161L14.727 9.34953Z" fill="#D7B399"/>
<path d="M25.3796 19.9905L23.3405 22.0297L28.607 27.2962L30.6462 25.2571L25.3796 19.9905Z" fill="#D7B399"/>
<path d="M22.046 23.3421L20.0069 25.3812L25.2734 30.6478L27.3126 28.6087L22.046 23.3421Z" fill="#D7B399"/>
<path d="M27.3029 32.6971L25.2697 30.6639L20 35.9336L14.7303 30.6639L12.6971 32.6971L20 40L27.3029 32.6971Z" fill="#D7B399"/>
<path d="M9.3361 14.7302L7.3029 12.697L0 19.9999L7.3029 27.3028L9.3361 25.2696L4.06639 19.9999L9.3361 14.7302Z" fill="#D7B399"/>
<path d="M32.6971 12.697L30.6639 14.7302L35.9336 19.9999L30.6639 25.2696L32.6971 27.3028L40 19.9999L32.6971 12.697Z" fill="#D7B399"/>
<path d="M25.2697 9.3361L27.3029 7.3029L20 0L12.6971 7.3029L14.7303 9.3361L20 4.06639L25.2697 9.3361Z" fill="#D7B399"/>
</g>
<path d="M65.472 15.368H60.096V12.2H74.736V15.368H69.36V29H65.472V15.368ZM93.4359 12.2V29H89.5479V22.112H81.9159V29H78.0279V12.2H81.9159V18.824H89.5479V12.2H93.4359ZM111.619 25.88V29H98.6108V12.2H111.307V15.32H102.475V18.968H110.275V21.992H102.475V25.88H111.619ZM129.429 29.288C128.101 29.288 126.813 29.112 125.565 28.76C124.333 28.392 123.341 27.92 122.589 27.344L123.909 24.416C124.629 24.944 125.485 25.368 126.477 25.688C127.469 26.008 128.461 26.168 129.453 26.168C130.557 26.168 131.373 26.008 131.901 25.688C132.429 25.352 132.693 24.912 132.693 24.368C132.693 23.968 132.533 23.64 132.213 23.384C131.909 23.112 131.509 22.896 131.013 22.736C130.533 22.576 129.877 22.4 129.045 22.208C127.765 21.904 126.717 21.6 125.901 21.296C125.085 20.992 124.381 20.504 123.789 19.832C123.213 19.16 122.925 18.264 122.925 17.144C122.925 16.168 123.189 15.288 123.717 14.504C124.245 13.704 125.037 13.072 126.093 12.608C127.165 12.144 128.469 11.912 130.005 11.912C131.077 11.912 132.125 12.04 133.149 12.296C134.173 12.552 135.069 12.92 135.837 13.4L134.637 16.352C133.085 15.472 131.533 15.032 129.981 15.032C128.893 15.032 128.085 15.208 127.557 15.56C127.045 15.912 126.789 16.376 126.789 16.952C126.789 17.528 127.085 17.96 127.677 18.248C128.285 18.52 129.205 18.792 130.437 19.064C131.717 19.368 132.765 19.672 133.581 19.976C134.397 20.28 135.093 20.76 135.669 21.416C136.261 22.072 136.557 22.96 136.557 24.08C136.557 25.04 136.285 25.92 135.741 26.72C135.213 27.504 134.413 28.128 133.341 28.592C132.269 29.056 130.965 29.288 129.429 29.288ZM155.822 12.2V29H151.934V22.112H144.302V29H140.414V12.2H144.302V18.824H151.934V12.2H155.822ZM169.133 29.288C167.389 29.288 165.813 28.912 164.405 28.16C163.013 27.408 161.917 26.376 161.117 25.064C160.333 23.736 159.941 22.248 159.941 20.6C159.941 18.952 160.333 17.472 161.117 16.16C161.917 14.832 163.013 13.792 164.405 13.04C165.813 12.288 167.389 11.912 169.133 11.912C170.877 11.912 172.445 12.288 173.837 13.04C175.229 13.792 176.325 14.832 177.125 16.16C177.925 17.472 178.325 18.952 178.325 20.6C178.325 22.248 177.925 23.736 177.125 25.064C176.325 26.376 175.229 27.408 173.837 28.16C172.445 28.912 170.877 29.288 169.133 29.288ZM169.133 25.976C170.125 25.976 171.021 25.752 171.821 25.304C172.621 24.84 173.245 24.2 173.693 23.384C174.157 22.568 174.389 21.64 174.389 20.6C174.389 19.56 174.157 18.632 173.693 17.816C173.245 17 172.621 16.368 171.821 15.92C171.021 15.456 170.125 15.224 169.133 15.224C168.141 15.224 167.245 15.456 166.445 15.92C165.645 16.368 165.013 17 164.549 17.816C164.101 18.632 163.877 19.56 163.877 20.6C163.877 21.64 164.101 22.568 164.549 23.384C165.013 24.2 165.645 24.84 166.445 25.304C167.245 25.752 168.141 25.976 169.133 25.976ZM189.719 12.2C191.207 12.2 192.495 12.448 193.583 12.944C194.687 13.44 195.535 14.144 196.127 15.056C196.719 15.968 197.015 17.048 197.015 18.296C197.015 19.528 196.719 20.608 196.127 21.536C195.535 22.448 194.687 23.152 193.583 23.648C192.495 24.128 191.207 24.368 189.719 24.368H186.335V29H182.447V12.2H189.719ZM189.503 21.2C190.671 21.2 191.559 20.952 192.167 20.456C192.775 19.944 193.079 19.224 193.079 18.296C193.079 17.352 192.775 16.632 192.167 16.136C191.559 15.624 190.671 15.368 189.503 15.368H186.335V21.2H189.503Z" fill="#212121"/>
<defs>
<clipPath id="clip0_0_10">
<rect width="40" height="40" fill="white"/>
</clipPath>
</defs>
</svg>
